<svg xmlns="http://www.w3.org/2000/svg" viewBox="0 0 512 512">
  <defs>
    <linearGradient id="g" x1="0" y1="0" x2="1" y2="1">
      <stop offset="0" stop-color="#58cc02"/>
      <stop offset="1" stop-color="#38bdf8"/>
    </linearGradient>
  </defs>
  <rect width="512" height="512" rx="120" fill="#07111f"/>
  <circle cx="256" cy="256" r="176" fill="url(#g)" opacity=".14"/>
  <path d="M142 324c70-22 146-22 228 0V158c-82-28-158-28-228 0v166Z" fill="#f8fafc"/>
  <path d="M165 183c56-17 116-17 182 0v103c-66-17-126-17-182 0V183Z" fill="#07111f"/>
  <g fill="none" stroke="#38bdf8" stroke-width="18" stroke-linecap="round" stroke-linejoin="round">
    <path d="M256 204a62 36 0 1 0 0 72 62 36 0 1 0 0-72Z"/>
    <circle cx="304" cy="238" r="10" fill="#58cc02" stroke="none"/>
    <path d="M191 298h130" opacity=".7"/>
  </g>
</svg>
